#N canvas 1282 317 734 467 10;
#X obj 274 263 *~;
#X obj 195 313 outlet~;
#X obj 96 34 unpack f f;
#X obj 94 3 inlet;
#X obj 401 183 / 127;
#X obj 197 183 phasor~;
#X obj 275 182 phasor~;
#X connect 0 0 1 0;
#X connect 2 0 5 0;
#X connect 2 0 6 0;
#X connect 2 1 4 0;
#X connect 3 0 2 0;
#X connect 4 0 0 1;
#X connect 5 0 0 0;
#X connect 6 0 0 0;
