#N canvas 649 279 658 467 10;
#X obj 48 134 osc~;
#X obj 175 215 *~;
#X obj 195 313 outlet~;
#X obj 97 51 unpack f f;
#X obj 303 3 inlet;
#X obj 352 88 sel 0;
#X obj 406 177 line;
#X obj 304 62 / 127;
#X obj 481 183 print;
#X obj 139 122 phasor~;
#X obj 153 172 expr~ $v1 > 0.5 + $v2 * 0.25;
#X obj 428 26 loadbang;
#X obj 203 74 random 1000;
#X obj 233 125 osc~;
#X obj 241 98 / 500;
#X msg 305 122 0 20;
#X obj 446 129 pack f 20;
#X connect 1 0 2 0;
#X connect 3 0 0 0;
#X connect 3 0 9 0;
#X connect 3 1 7 0;
#X connect 4 0 3 0;
#X connect 5 0 15 0;
#X connect 5 1 16 0;
#X connect 6 0 1 1;
#X connect 7 0 5 0;
#X connect 9 0 10 0;
#X connect 10 0 1 0;
#X connect 11 0 12 0;
#X connect 12 0 14 0;
#X connect 13 0 10 1;
#X connect 14 0 13 0;
#X connect 14 0 8 0;
#X connect 15 0 6 0;
#X connect 16 0 6 0;
