#N canvas 1084 277 1352 1055 10;
#X obj 504 11 notein;
#X obj 347 817 dac~;
#X obj 497 165 pack f f f;
#X obj 488 408 +~;
#X obj 537 440 +~;
#X obj 598 487 +~;
#X obj 441 59 mtof;
#X obj 343 312 oscillator;
#X obj 460 306 oscillator;
#X obj 567 319 oscillator;
#X obj 687 318 oscillator;
#X obj 603 558 /~ 5;
#X obj 502 105 poly 5;
#X obj 496 220 route 1 2 3 4 5;
#X obj 651 519 +~;
#X obj 810 315 oscillator;
#X obj 730 608 scope~ 500 400 21 3 128 -1 1 0 0 0 0 205 229 232 74
79 77 96 98 102 0;
#X floatatom 927 453 5 0 0 0 - - -;
#X msg 927 473;
#X symbolatom 927 494 10 0 0 0 - - -;
#X obj 827 445 nbx 5 14 -1e+037 1e+037 0 0 empty empty empty 0 -8 0
10 -262144 -1 -1 21 256;
#X obj 511 703 bob~;
#X obj 582 633 nbx 5 14 -1e+037 1e+037 0 0 empty empty empty 0 -8 0
10 -262144 -1 -1 0 256;
#X obj 660 638 nbx 5 14 -1e+037 1e+037 0 0 empty empty empty 0 -8 0
10 -262144 -1 -1 0 256;
#X connect 0 0 6 0;
#X connect 0 1 12 1;
#X connect 2 0 13 0;
#X connect 3 0 4 0;
#X connect 4 0 5 0;
#X connect 5 0 14 0;
#X connect 6 0 12 0;
#X connect 7 0 3 0;
#X connect 8 0 3 1;
#X connect 9 0 4 1;
#X connect 10 0 5 1;
#X connect 11 0 16 0;
#X connect 11 0 21 0;
#X connect 12 0 2 0;
#X connect 12 1 2 1;
#X connect 12 2 2 2;
#X connect 13 0 7 0;
#X connect 13 1 8 0;
#X connect 13 2 9 0;
#X connect 13 3 10 0;
#X connect 13 4 15 0;
#X connect 14 0 11 0;
#X connect 15 0 14 1;
#X connect 17 0 18 0;
#X connect 18 0 19 0;
#X connect 20 0 16 0;
#X connect 21 0 1 0;
#X connect 21 0 1 1;
#X connect 22 0 21 1;
#X connect 23 0 21 2;
